<svg width="65" height="65" viewBox="0 0 65 65" fill="none" xmlns="http://www.w3.org/2000/svg">
<circle cx="32.5" cy="32.5" r="32.5" fill="white"/>
<circle cx="32.5" cy="32.5" r="28.5" fill="#FF3B30"/>
<path d="M34.4239 32.5002L42.6009 24.3228C43.133 23.7909 43.133 22.9308 42.6009 22.3989C42.069 21.867 41.209 21.867 40.6771 22.3989L32.4999 30.5763L24.3229 22.3989C23.7908 21.867 22.931 21.867 22.3991 22.3989C21.867 22.9308 21.867 23.7909 22.3991 24.3228L30.5761 32.5002L22.3991 40.6776C21.867 41.2095 21.867 42.0695 22.3991 42.6014C22.6642 42.8667 23.0127 43 23.361 43C23.7093 43 24.0576 42.8667 24.3229 42.6014L32.4999 34.424L40.6771 42.6014C40.9424 42.8667 41.2907 43 41.639 43C41.9873 43 42.3356 42.8667 42.6009 42.6014C43.133 42.0695 43.133 41.2095 42.6009 40.6776L34.4239 32.5002Z" fill="white"/>
</svg>
