<svg width="65" height="66" viewBox="0 0 65 66" fill="none" xmlns="http://www.w3.org/2000/svg">
<circle cx="32.5" cy="33" r="32.5" fill="white"/>
<circle cx="32.5" cy="33" r="28.5" fill="#2B50A1"/>
<path fill-rule="evenodd" clip-rule="evenodd" d="M30.9691 39.8003L30.9732 39.5636C31.0007 37.9822 31.2209 36.6894 31.6458 35.6967C32.0732 34.6982 32.9795 33.5509 34.3368 32.2564H34.3368C35.6878 30.9546 36.5376 30.0536 36.9049 29.5428L36.9056 29.5419L37.0953 29.6725L37.1009 29.6764L36.9056 29.5419C37.2864 29.0179 37.5751 28.4493 37.7722 27.8357L37.773 27.8328C37.9819 27.2102 38.0884 26.4989 38.0884 25.6961C38.0884 24.0797 37.6443 22.8428 36.7837 21.9552L36.7814 21.9527V21.9527C35.9368 21.0558 34.7461 20.5953 33.1753 20.5953C31.5882 20.5953 30.3283 21.038 29.3719 21.9059L29.3718 21.906C28.4326 22.7577 27.9409 23.9204 27.9145 25.4214L27.9105 25.6503H27.6753H25.2422H25L25.003 25.4146C25.0309 23.1822 25.81 21.3793 27.3516 20.0301C28.8875 18.6726 30.8352 18 33.1753 18C35.5685 18 37.482 18.6855 38.8858 20.0787C40.3028 21.4583 41 23.3269 41 25.6563C41 27.1259 40.657 28.5093 39.9716 29.8031L39.7699 29.7018L39.7752 29.7046L39.9716 29.8031L39.9711 29.8039C39.2841 31.0866 37.9928 32.5677 36.1179 34.2461L36.11 34.2531L36.1099 34.2528C34.6358 35.4592 33.8848 37.2178 33.8848 39.5675V39.8003H33.6455H31.2124H30.9691ZM36.0232 34.1525L35.9564 34.0751L35.9559 34.0746L36.0232 34.1525ZM29.2093 21.7362L29.2087 21.7356L29.2093 21.7362ZM29.2143 21.7414L29.2093 21.7362L29.2143 21.7414ZM29.2148 21.742L29.2143 21.7414L29.2148 21.742ZM31.3003 45.0674L31.3146 45.0802L31.138 44.9233L31.3003 45.0674ZM31.3146 47.3293L31.138 47.4861C30.8089 47.1354 30.646 46.7069 30.646 46.2147C30.646 45.7113 30.8076 45.2755 31.138 44.9233L31.1383 44.923C31.4924 44.547 31.9776 44.3697 32.5619 44.3697C33.1325 44.3697 33.6087 44.547 33.9611 44.9189C34.3195 45.2692 34.4982 45.7064 34.4982 46.2147C34.4982 46.7133 34.3169 47.1443 33.9578 47.4938C33.6035 47.8388 33.1284 48 32.5619 48C31.9838 48 31.501 47.8399 31.1455 47.4938L31.1378 47.4864L31.3147 47.3293H31.3147C31.3147 47.3293 31.3147 47.3293 31.3146 47.3293Z" fill="white"/>
</svg>
