<svg height="480pt" viewBox="0 0 480 480" width="480pt" xmlns="http://www.w3.org/2000/svg">
    <path d="m144 168h192v144h-192zm0 0"/>
    <g>
        <path d="m384 72h-288c-13.253906 0-24 10.746094-24 24v288c0 13.253906 10.746094 24 24 24h288c13.253906 0 24-10.746094 24-24v-288c0-13.253906-10.746094-24-24-24zm8 312c0 4.417969-3.582031 8-8 8h-288c-4.417969 0-8-3.582031-8-8v-288c0-4.417969 3.582031-8 8-8h288c4.417969 0 8 3.582031 8 8zm0 0"/>
        <path d="m336 160h-192c-4.417969 0-8 3.582031-8 8v144c0 4.417969 3.582031 8 8 8h192c4.417969 0 8-3.582031 8-8v-144c0-4.417969-3.582031-8-8-8zm-8 144h-176v-128h176zm0 0"/>
        <path d="m184 288h24v-48c0-4.417969-3.582031-8-8-8h-16v16h8v24h-8c-4.417969 0-8-3.582031-8-8v-48c0-4.417969 3.582031-8 8-8h24v-16h-24c-13.253906 0-24 10.746094-24 24v48c0 13.253906 10.746094 24 24 24zm0 0"/>
        <path d="m296 288c13.253906 0 24-10.746094 24-24v-72h-16v72c0 4.417969-3.582031 8-8 8s-8-3.582031-8-8v-72h-16v72c0 13.253906 10.746094 24 24 24zm0 0"/>
        <path d="m232 248h24c4.417969 0 8-3.582031 8-8v-40c0-4.417969-3.582031-8-8-8h-32c-4.417969 0-8 3.582031-8 8v88h16zm0-40h16v24h-16zm0 0"/>
        <path d="m104 0h16v48h-16zm0 0"/>
        <path d="m168 0h16v48h-16zm0 0"/>
        <path d="m232 0h16v48h-16zm0 0"/>
        <path d="m296 0h16v48h-16zm0 0"/>
        <path d="m360 0h16v48h-16zm0 0"/>
        <path d="m104 432h16v48h-16zm0 0"/>
        <path d="m168 432h16v48h-16zm0 0"/>
        <path d="m232 432h16v48h-16zm0 0"/>
        <path d="m296 432h16v48h-16zm0 0"/>
        <path d="m360 432h16v48h-16zm0 0"/>
        <path d="m432 104h48v16h-48zm0 0"/>
        <path d="m432 168h48v16h-48zm0 0"/>
        <path d="m432 232h48v16h-48zm0 0"/>
        <path d="m432 296h48v16h-48zm0 0"/>
        <path d="m432 360h48v16h-48zm0 0"/>
        <path d="m0 104h48v16h-48zm0 0"/>
        <path d="m0 168h48v16h-48zm0 0"/>
        <path d="m0 232h48v16h-48zm0 0"/>
        <path d="m0 296h48v16h-48zm0 0"/>
        <path d="m0 360h48v16h-48zm0 0"/>
    </g>
</svg>